<svg width="390" height="755" viewBox="0 0 390 755" fill="none" xmlns="http://www.w3.org/2000/svg">
<g filter="url(#filter0_f_1_221)">
<rect x="-71.9634" y="6" width="177.57" height="114.326" rx="4.86493" fill="#219653" fill-opacity="0.5"/>
<rect x="39.9302" y="143.434" width="177.57" height="114.326" rx="4.86493" fill="#219653" fill-opacity="0.5"/>
<rect x="160.337" y="280.869" width="177.57" height="114.326" rx="4.86493" fill="#219653" fill-opacity="0.5"/>
<rect x="95.8769" y="421.952" width="177.57" height="114.326" rx="4.86493" fill="#219653" fill-opacity="0.5"/>
<rect x="-6.28668" y="559.386" width="177.57" height="114.326" rx="4.86493" fill="#219653" fill-opacity="0.5"/>
<rect x="-75.612" y="693.172" width="108.245" height="55.9468" rx="4.86493" fill="#219653" fill-opacity="0.5"/>
<rect x="194.392" y="598.306" width="108.245" height="55.9468" rx="4.86493" fill="#6FCF97" fill-opacity="0.5"/>
<rect x="63.0387" y="721.145" width="108.245" height="27.9734" rx="4.86493" fill="#6FCF97" fill-opacity="0.5"/>
<rect x="302.637" y="451.142" width="108.245" height="55.9468" rx="4.86493" fill="#6FCF97" fill-opacity="0.5"/>
<rect x="-57.3685" y="435.331" width="108.245" height="55.9468" rx="4.86493" fill="#23A649" fill-opacity="0.5"/>
<rect x="357.367" y="319.788" width="108.245" height="55.9468" rx="4.86493" fill="#6FCF97" fill-opacity="0.5"/>
<rect x="-2.63803" y="303.977" width="108.245" height="55.9468" rx="4.86493" fill="#23A649" fill-opacity="0.5"/>
<rect x="249.122" y="172.624" width="108.245" height="55.9468" rx="4.86493" fill="#6FCF97" fill-opacity="0.5"/>
<rect x="149.391" y="35.1895" width="108.245" height="55.9468" rx="4.86493" fill="#6FCF97" fill-opacity="0.5"/>
</g>
<defs>
<filter id="filter0_f_1_221" x="-81.2524" y="0.359629" width="552.505" height="754.4" filterUnits="userSpaceOnUse" color-interpolation-filters="sRGB">
<feFlood flood-opacity="0" result="BackgroundImageFix"/>
<feBlend mode="normal" in="SourceGraphic" in2="BackgroundImageFix" result="shape"/>
<feGaussianBlur stdDeviation="2.82019" result="effect1_foregroundBlur_1_221"/>
</filter>
</defs>
</svg>
